<svg xmlns="http://www.w3.org/2000/svg" width="1824" height="213" viewBox="0 0 1824 213" fill="none">
      <path fill-rule="evenodd" clip-rule="evenodd"
        d="M972.575 210.588V147.387L970.648 116.511H973.779L994.252 148.352L1041.94 210.588H1090.11V48.9682H1044.83V111.445L1047 146.663H1043.87L1020.26 109.515L975.465 48.9682H927.294V210.588H972.575ZM524.824 210.588V169.821H433.54V166.685L523.379 89.7349V48.9682H370.436V89.7349H454.976V92.8708L368.991 169.821V210.588H524.824ZM1824 142.804V48.9682H1778.72V139.186C1778.72 160.999 1772.83 168.388 1745.88 169.047C1744.46 169.081 1743.04 169.098 1741.63 169.097C1716.63 169.097 1707.72 164.427 1705.3 150.214C1704.74 146.566 1704.48 142.877 1704.54 139.186V48.9682H1659.25V142.804C1658.96 154.956 1661.58 167.002 1666.91 177.924C1676.94 197.344 1697 209.702 1728.05 212.428C1732.57 212.817 1737.1 213.007 1741.63 213C1794.4 213 1820.57 189.102 1823.68 150.813C1823.9 148.148 1824 145.477 1824 142.804ZM658.259 210.588L723.049 48.9682H668.615L627.911 164.755H624.78L583.112 48.9682H528.437L593.228 210.588H658.259ZM45.2809 210.588V155.589H63.8268C66.2813 155.575 68.7354 155.664 71.1825 155.856C82.9362 156.855 87.1295 160.85 92.0069 171.027L111.275 210.588H163.541L143.55 170.062C137.702 158.112 132.536 150.26 117.015 145.841C116.548 145.708 116.08 145.58 115.611 145.457V143.045C143.03 139.613 156.159 127.214 158.729 106.524C159.054 103.835 159.214 101.128 159.206 98.4189C159.206 70.4998 141.719 53.3127 108.245 49.6895C103.571 49.1966 98.8743 48.9558 94.1746 48.9682H0V210.588H45.2809ZM211.953 210.588L224.477 180.676H301.07L313.353 210.588H365.378L295.53 48.9682H230.74L161.132 210.588H211.953ZM769.052 210.588L781.577 180.676H858.169L870.452 210.588H922.477L852.629 48.9682H787.839L718.232 210.588H769.052ZM1179.47 210.588L1191.99 180.676H1268.59L1280.87 210.588H1332.9L1263.05 48.9682H1198.26L1128.65 210.588H1179.47ZM1602.89 127.124V124.712C1607.78 124.559 1612.64 123.883 1617.38 122.693C1634.89 118.11 1642.28 106.358 1643.05 90.8397C1643.1 89.9093 1643.12 88.9779 1643.12 88.0463C1643.3 81.3602 1641.76 74.7402 1638.65 68.8209C1631.45 55.8407 1615.54 48.9682 1590.85 48.9682H1488.25V210.588H1596.39C1633.33 210.588 1649.25 194.406 1650.5 169.054C1650.56 167.943 1650.58 166.832 1650.58 165.72C1650.58 143.286 1635.17 128.331 1602.89 127.124ZM1476.2 210.588V169.821H1382.99V48.9682H1337.71V210.588H1476.2ZM305.646 3.1359V0H274.094V2.41223C274.124 3.47808 274.022 4.54356 273.79 5.58431C273.126 8.16057 271.129 9.55242 265.572 9.83466C264.801 9.87275 264.028 9.89124 263.255 9.89014C262.141 9.89559 261.027 9.85293 259.917 9.76229C254.312 9.27261 252.776 7.38142 252.477 3.98018C252.434 3.45865 252.414 2.93551 252.417 2.41223V0H220.865V3.1359C220.865 21.5967 236.13 35.3198 259.146 36.7792C260.514 36.8652 261.885 36.9078 263.255 36.9071C288.545 36.9071 305.646 22.6749 305.646 3.1359ZM45.2809 89.7349H93.6929C106.94 89.7349 111.757 92.8708 111.757 105.656C111.757 118.141 107.785 121.277 97.1371 121.75C95.9896 121.798 94.8413 121.82 93.6929 121.818H45.2809V89.7349ZM1533.29 147.387H1590.61C1601.32 147.387 1604.6 149.416 1604.81 157.605C1604.82 157.898 1604.82 158.191 1604.82 158.483C1604.82 166.374 1602.32 169.08 1594.72 169.681C1593.35 169.781 1591.98 169.828 1590.61 169.821H1533.29V147.387ZM1533.29 89.7349H1584.83C1594.22 89.7349 1597.84 92.6296 1597.84 100.107C1597.84 107.585 1595.19 110.239 1586.03 110.239H1533.29V89.7349ZM250.972 117.234L261.328 89.9761H264.46L275.057 117.234L284.451 139.909H241.578L250.972 117.234ZM808.071 117.234L818.428 89.9761H821.559L832.156 117.234L841.55 139.909H798.677L808.071 117.234ZM1218.49 117.234L1228.85 89.9761H1231.98L1242.57 117.234L1251.97 139.909H1209.1L1218.49 117.234Z"
        fill="white" />
    </svg>