<?xml version="1.0" encoding="utf-8"?>
<svg viewBox="-0.001 48.968 1067.284 344.793" fill="none" style="" xmlns="http://www.w3.org/2000/svg">
  <path fill-rule="evenodd" clip-rule="evenodd" d="M 949.752 210.588 L 949.752 147.387 L 947.825 116.511 L 950.956 116.511 L 971.429 148.352 L 1019.117 210.588 L 1067.287 210.588 L 1067.287 48.968 L 1022.007 48.968 L 1022.007 111.445 L 1024.177 146.663 L 1021.047 146.663 L 997.437 109.515 L 952.642 48.968 L 904.471 48.968 L 904.471 210.588 L 949.752 210.588 Z M 524.824 210.588 L 524.824 169.821 L 433.54 169.821 L 433.54 166.685 L 523.379 89.735 L 523.379 48.968 L 370.436 48.968 L 370.436 89.735 L 454.976 89.735 L 454.976 92.871 L 368.991 169.821 L 368.991 210.588 L 524.824 210.588 Z M 695.506 323.14 L 695.506 229.304 L 650.226 229.304 L 650.226 319.522 C 650.226 341.335 644.336 348.724 617.386 349.383 C 615.966 349.417 614.546 349.434 613.136 349.433 C 588.136 349.433 579.226 344.763 576.806 330.55 C 576.246 326.902 575.986 323.213 576.046 319.522 L 576.046 229.304 L 530.756 229.304 L 530.756 323.14 C 530.466 335.292 533.086 347.338 538.416 358.26 C 548.446 377.68 568.506 390.038 599.556 392.764 C 604.076 393.153 608.606 393.343 613.136 393.336 C 665.906 393.336 692.076 369.438 695.186 331.149 C 695.406 328.484 695.506 325.813 695.506 323.14 Z M 658.259 210.588 L 723.049 48.968 L 668.615 48.968 L 627.911 164.755 L 624.78 164.755 L 583.112 48.968 L 528.437 48.968 L 593.228 210.588 L 658.259 210.588 Z M 45.281 210.588 L 45.281 155.589 L 63.827 155.589 C 66.281 155.575 68.735 155.664 71.183 155.856 C 82.936 156.855 87.13 160.85 92.007 171.027 L 111.275 210.588 L 163.541 210.588 L 143.55 170.062 C 137.702 158.112 132.536 150.26 117.015 145.841 C 116.548 145.708 116.08 145.58 115.611 145.457 L 115.611 143.045 C 143.03 139.613 156.159 127.214 158.729 106.524 C 159.054 103.835 159.214 101.128 159.206 98.419 C 159.206 70.5 141.719 53.313 108.245 49.69 C 103.571 49.197 98.874 48.956 94.175 48.968 L 0 48.968 L 0 210.588 L 45.281 210.588 Z M 211.953 210.588 L 224.477 180.676 L 301.07 180.676 L 313.353 210.588 L 365.378 210.588 L 295.53 48.968 L 230.74 48.968 L 161.132 210.588 L 211.953 210.588 Z M 746.229 210.588 L 758.754 180.676 L 835.346 180.676 L 847.629 210.588 L 899.654 210.588 L 829.806 48.968 L 765.016 48.968 L 695.409 210.588 L 746.229 210.588 Z M 50.976 390.924 L 63.496 361.012 L 140.096 361.012 L 152.376 390.924 L 204.406 390.924 L 134.556 229.304 L 69.766 229.304 L 0.156 390.924 L 50.976 390.924 Z M 474.396 307.46 L 474.396 305.048 C 479.286 304.895 484.146 304.219 488.886 303.029 C 506.396 298.446 513.786 286.694 514.556 271.176 C 514.606 270.245 514.626 269.314 514.626 268.382 C 514.806 261.696 513.266 255.076 510.156 249.157 C 502.956 236.177 487.046 229.304 462.356 229.304 L 359.756 229.304 L 359.756 390.924 L 467.896 390.924 C 504.836 390.924 520.756 374.742 522.006 349.39 C 522.066 348.279 522.086 347.168 522.086 346.056 C 522.086 323.622 506.676 308.667 474.396 307.46 Z M 347.706 390.924 L 347.706 350.157 L 254.496 350.157 L 254.496 229.304 L 209.216 229.304 L 209.216 390.924 L 347.706 390.924 Z M 45.281 89.735 L 93.693 89.735 C 106.94 89.735 111.757 92.871 111.757 105.656 C 111.757 118.141 107.785 121.277 97.137 121.75 C 95.99 121.798 94.841 121.82 93.693 121.818 L 45.281 121.818 L 45.281 89.735 Z M 404.796 327.723 L 462.116 327.723 C 472.826 327.723 476.106 329.752 476.316 337.941 C 476.326 338.234 476.326 338.527 476.326 338.819 C 476.326 346.71 473.826 349.416 466.226 350.017 C 464.856 350.117 463.486 350.164 462.116 350.157 L 404.796 350.157 L 404.796 327.723 Z M 404.796 270.071 L 456.336 270.071 C 465.726 270.071 469.346 272.966 469.346 280.443 C 469.346 287.921 466.696 290.575 457.536 290.575 L 404.796 290.575 L 404.796 270.071 Z M 250.972 117.234 L 261.328 89.976 L 264.46 89.976 L 275.057 117.234 L 284.451 139.909 L 241.578 139.909 L 250.972 117.234 Z M 785.248 117.234 L 795.605 89.976 L 798.736 89.976 L 809.333 117.234 L 818.727 139.909 L 775.854 139.909 L 785.248 117.234 Z M 89.996 297.57 L 100.356 270.312 L 103.486 270.312 L 114.076 297.57 L 123.476 320.245 L 80.606 320.245 L 89.996 297.57 Z" fill="white" style="mix-blend-mode: difference;"/>
</svg>