<?xml version="1.0" encoding="utf-8"?>
<svg viewBox="0 48.968 1801.177 163.03" fill="none" style="" xmlns="http://www.w3.org/2000/svg">
  <path fill-rule="evenodd" clip-rule="evenodd" d="M 949.752 210.588 L 949.752 147.387 L 947.825 116.511 L 950.956 116.511 L 971.429 148.352 L 1019.117 210.588 L 1067.287 210.588 L 1067.287 48.968 L 1022.007 48.968 L 1022.007 111.445 L 1024.177 146.663 L 1021.047 146.663 L 997.437 109.515 L 952.642 48.968 L 904.471 48.968 L 904.471 210.588 L 949.752 210.588 Z M 524.824 210.588 L 524.824 169.821 L 433.54 169.821 L 433.54 166.685 L 523.379 89.735 L 523.379 48.968 L 370.436 48.968 L 370.436 89.735 L 454.976 89.735 L 454.976 92.871 L 368.991 169.821 L 368.991 210.588 L 524.824 210.588 Z M 1801.177 142.804 L 1801.177 48.968 L 1755.897 48.968 L 1755.897 139.186 C 1755.897 160.999 1750.007 168.388 1723.057 169.047 C 1721.637 169.081 1720.217 169.098 1718.807 169.097 C 1693.807 169.097 1684.897 164.427 1682.477 150.214 C 1681.917 146.566 1681.657 142.877 1681.717 139.186 L 1681.717 48.968 L 1636.427 48.968 L 1636.427 142.804 C 1636.137 154.956 1638.757 167.002 1644.087 177.924 C 1654.117 197.344 1674.177 209.702 1705.227 212.428 C 1709.747 212.817 1714.277 213.007 1718.807 213 C 1771.577 213 1797.747 189.102 1800.857 150.813 C 1801.077 148.148 1801.177 145.477 1801.177 142.804 Z M 658.259 210.588 L 723.049 48.968 L 668.615 48.968 L 627.911 164.755 L 624.78 164.755 L 583.112 48.968 L 528.437 48.968 L 593.228 210.588 L 658.259 210.588 Z M 45.281 210.588 L 45.281 155.589 L 63.827 155.589 C 66.281 155.575 68.735 155.664 71.183 155.856 C 82.936 156.855 87.13 160.85 92.007 171.027 L 111.275 210.588 L 163.541 210.588 L 143.55 170.062 C 137.702 158.112 132.536 150.26 117.015 145.841 C 116.548 145.708 116.08 145.58 115.611 145.457 L 115.611 143.045 C 143.03 139.613 156.159 127.214 158.729 106.524 C 159.054 103.835 159.214 101.128 159.206 98.419 C 159.206 70.5 141.719 53.313 108.245 49.69 C 103.571 49.197 98.874 48.956 94.175 48.968 L 0 48.968 L 0 210.588 L 45.281 210.588 Z M 211.953 210.588 L 224.477 180.676 L 301.07 180.676 L 313.353 210.588 L 365.378 210.588 L 295.53 48.968 L 230.74 48.968 L 161.132 210.588 L 211.953 210.588 Z M 746.229 210.588 L 758.754 180.676 L 835.346 180.676 L 847.629 210.588 L 899.654 210.588 L 829.806 48.968 L 765.016 48.968 L 695.409 210.588 L 746.229 210.588 Z M 1156.647 210.588 L 1169.167 180.676 L 1245.767 180.676 L 1258.047 210.588 L 1310.077 210.588 L 1240.227 48.968 L 1175.437 48.968 L 1105.827 210.588 L 1156.647 210.588 Z M 1580.067 127.124 L 1580.067 124.712 C 1584.957 124.559 1589.817 123.883 1594.557 122.693 C 1612.067 118.11 1619.457 106.358 1620.227 90.84 C 1620.277 89.909 1620.297 88.978 1620.297 88.046 C 1620.477 81.36 1618.937 74.74 1615.827 68.821 C 1608.627 55.841 1592.717 48.968 1568.027 48.968 L 1465.427 48.968 L 1465.427 210.588 L 1573.567 210.588 C 1610.507 210.588 1626.427 194.406 1627.677 169.054 C 1627.737 167.943 1627.757 166.832 1627.757 165.72 C 1627.757 143.286 1612.347 128.331 1580.067 127.124 Z M 1453.377 210.588 L 1453.377 169.821 L 1360.167 169.821 L 1360.167 48.968 L 1314.887 48.968 L 1314.887 210.588 L 1453.377 210.588 Z M 45.281 89.735 L 93.693 89.735 C 106.94 89.735 111.757 92.871 111.757 105.656 C 111.757 118.141 107.785 121.277 97.137 121.75 C 95.99 121.798 94.841 121.82 93.693 121.818 L 45.281 121.818 L 45.281 89.735 Z M 1510.467 147.387 L 1567.787 147.387 C 1578.497 147.387 1581.777 149.416 1581.987 157.605 C 1581.997 157.898 1581.997 158.191 1581.997 158.483 C 1581.997 166.374 1579.497 169.08 1571.897 169.681 C 1570.527 169.781 1569.157 169.828 1567.787 169.821 L 1510.467 169.821 L 1510.467 147.387 Z M 1510.467 89.735 L 1562.007 89.735 C 1571.397 89.735 1575.017 92.63 1575.017 100.107 C 1575.017 107.585 1572.367 110.239 1563.207 110.239 L 1510.467 110.239 L 1510.467 89.735 Z M 250.972 117.234 L 261.328 89.976 L 264.46 89.976 L 275.057 117.234 L 284.451 139.909 L 241.578 139.909 L 250.972 117.234 Z M 785.248 117.234 L 795.605 89.976 L 798.736 89.976 L 809.333 117.234 L 818.727 139.909 L 775.854 139.909 L 785.248 117.234 Z M 1195.667 117.234 L 1206.027 89.976 L 1209.157 89.976 L 1219.747 117.234 L 1229.147 139.909 L 1186.277 139.909 L 1195.667 117.234 Z" fill="white" style="mix-blend-mode: difference;"/>
</svg>